<svg width="723" height="152" viewBox="0 0 723 152" fill="none" xmlns="http://www.w3.org/2000/svg">
<path d="M2 7L73 42L146 7L73 145L2 7Z" fill="white" stroke="white"/>
<path d="M206.56 89.12V64.28C206.56 53 206.28 43.72 205.72 36.44C207.56 36.2 209.76 36.08 212.32 36.08C217.52 36.08 220.12 37.6 220.12 40.64C220.12 41.12 220.04 42.76 219.88 45.56C219.72 48.28 219.56 51.72 219.4 55.88C219.24 59.96 219.16 63.84 219.16 67.52V77.84C219.16 93.68 219.44 103.28 220 106.64C223.2 106.8 225.76 106.88 227.68 106.88C239.44 106.88 247.04 105.96 250.48 104.12C251.36 105.88 251.8 107.84 251.8 110C251.8 112.64 250.76 114.36 248.68 115.16C246.68 115.88 243.32 116.24 238.6 116.24H228.16C221.04 116.24 215.72 116.16 212.2 116C209.96 115.92 208.4 115.36 207.52 114.32C206.72 113.28 206.32 111.56 206.32 109.16C206.32 107.88 206.36 104.92 206.44 100.28C206.52 95.64 206.56 91.92 206.56 89.12ZM278.612 92.36C276.452 92.36 273.532 92.28 269.852 92.12C270.652 97.8 272.452 101.96 275.252 104.6C278.132 107.24 281.652 108.56 285.812 108.56C287.972 108.56 290.212 108 292.532 106.88C294.852 105.76 296.572 104.16 297.692 102.08C301.612 104.16 303.572 106.4 303.572 108.8C303.572 111.52 301.692 113.6 297.932 115.04C294.172 116.48 289.972 117.2 285.332 117.2C277.812 117.2 271.092 114.72 265.172 109.76C259.332 104.8 256.412 97.64 256.412 88.28C256.412 78.44 259.212 70.92 264.812 65.72C270.492 60.44 277.172 57.8 284.852 57.8C291.012 57.8 295.972 59.48 299.732 62.84C303.572 66.2 305.492 70.2 305.492 74.84C305.492 78.6 304.772 81.72 303.332 84.2C301.972 86.6 299.932 88.36 297.212 89.48C294.492 90.6 291.732 91.36 288.932 91.76C286.132 92.16 282.692 92.36 278.612 92.36ZM283.772 66.56C280.012 66.56 276.812 68 274.172 70.88C271.532 73.76 269.972 78.32 269.492 84.56C274.612 84.56 278.372 84.44 280.772 84.2C288.532 83.24 292.412 80.2 292.412 75.08C292.412 72.76 291.572 70.76 289.892 69.08C288.292 67.4 286.252 66.56 283.772 66.56ZM334.998 55.04V59.12C341.718 59.12 346.838 58.92 350.358 58.52C350.758 59.4 350.958 60.68 350.958 62.36C350.958 64.36 350.478 65.76 349.518 66.56C348.558 67.28 347.038 67.68 344.958 67.76C342.638 67.84 339.318 67.88 334.998 67.88V91.64C334.998 102.2 335.758 110.04 337.278 115.16C335.518 115.96 333.478 116.36 331.158 116.36C327.798 116.36 325.478 115.88 324.198 114.92C322.998 113.88 322.398 112.2 322.398 109.88C322.398 105.56 322.438 98.92 322.518 89.96C322.598 80.92 322.638 73.6 322.638 68C321.518 68 318.438 68.24 313.398 68.72C313.078 67.44 312.918 65.96 312.918 64.28C312.918 62.6 313.358 61.44 314.238 60.8C315.118 60.16 316.358 59.68 317.958 59.36C319.398 59.2 320.958 59.12 322.638 59.12C322.798 49.12 324.518 41.8 327.798 37.16C331.078 32.44 336.878 30.08 345.198 30.08C348.398 30.08 351.078 30.64 353.238 31.76C355.398 32.8 356.478 34.28 356.478 36.2C356.478 38.36 354.998 40.64 352.038 43.04C349.158 40.4 346.158 39.08 343.038 39.08C340.798 39.08 338.958 39.96 337.518 41.72C335.838 44.04 334.998 48.48 334.998 55.04ZM366.664 117.2C364.264 117.2 362.224 116.4 360.544 114.8C358.864 113.2 358.024 111.16 358.024 108.68C358.024 106.28 358.904 104.28 360.664 102.68C362.424 101 364.504 100.16 366.904 100.16C369.224 100.16 371.224 101 372.904 102.68C374.584 104.28 375.424 106.28 375.424 108.68C375.424 111.08 374.544 113.12 372.784 114.8C371.024 116.4 368.984 117.2 366.664 117.2ZM479.738 36.08C481.898 35.52 484.098 35.24 486.338 35.24C488.898 35.24 490.698 35.68 491.738 36.56C492.778 37.44 493.298 38.96 493.298 41.12C493.298 49.92 490.658 61.72 485.378 76.52C480.098 91.24 474.698 102.32 469.178 109.76C467.258 112.4 465.498 114.16 463.898 115.04C462.298 115.92 460.418 116.36 458.258 116.36C456.338 116.36 454.898 116.24 453.938 116C451.218 101.84 446.738 86.2 440.498 69.08C438.018 77 435.098 84.72 431.738 92.24C428.378 99.68 425.098 105.52 421.898 109.76C419.978 112.4 418.218 114.16 416.618 115.04C415.018 115.92 413.138 116.36 410.978 116.36C409.058 116.36 407.618 116.24 406.658 116C404.258 103.12 400.138 88.4 394.298 71.84C388.538 55.28 383.618 44.88 379.538 40.64C383.778 37.52 387.338 35.96 390.218 35.96C393.338 35.96 395.538 37.44 396.818 40.4C399.778 47.28 403.058 56.68 406.658 68.6C410.258 80.52 413.218 91.52 415.538 101.6C420.338 93.92 424.418 84.2 427.778 72.44C431.218 60.68 432.938 50.52 432.938 41.96C432.938 39.16 432.778 37.2 432.458 36.08C434.618 35.52 436.818 35.24 439.058 35.24C441.618 35.24 443.418 35.68 444.458 36.56C445.498 37.44 446.018 38.96 446.018 41.12C446.018 41.84 445.938 43 445.778 44.6C452.018 60.52 457.698 79.52 462.818 101.6C467.618 93.92 471.698 84.2 475.058 72.44C478.498 60.68 480.218 50.52 480.218 41.96C480.218 39.16 480.058 37.2 479.738 36.08ZM542.527 89C542.527 82.6 541.167 77.28 538.447 73.04C535.807 68.72 532.207 66.56 527.647 66.56C523.007 66.56 519.407 68.32 516.847 71.84C514.287 75.36 513.007 80.04 513.007 85.88C513.007 92.36 514.287 97.72 516.847 101.96C519.487 106.2 523.087 108.32 527.647 108.32C532.367 108.32 536.007 106.56 538.567 103.04C541.207 99.52 542.527 94.84 542.527 89ZM527.647 117.2C519.327 117.2 512.607 114.52 507.487 109.16C502.447 103.72 499.927 96.48 499.927 87.44C499.927 78.4 502.447 71.2 507.487 65.84C512.607 60.48 519.327 57.8 527.647 57.8C536.047 57.8 542.807 60.48 547.927 65.84C553.047 71.2 555.607 78.4 555.607 87.44C555.607 96.48 553.047 103.72 547.927 109.16C542.807 114.52 536.047 117.2 527.647 117.2ZM572.532 58.64C575.412 58.64 577.452 59.16 578.652 60.2C579.932 61.24 580.572 62.88 580.572 65.12V66.56C585.212 60.72 589.732 57.8 594.132 57.8C598.772 57.8 601.092 59.48 601.092 62.84C601.092 65.08 599.652 68 596.772 71.6C595.092 70.16 593.212 69.44 591.132 69.44C587.052 69.44 583.372 71.64 580.092 76.04C579.852 81.16 579.732 86.36 579.732 91.64C579.732 102.12 580.812 109.88 582.972 114.92C580.812 115.96 578.452 116.48 575.892 116.48C572.452 116.48 570.132 115.72 568.932 114.2C567.732 112.68 567.132 110.24 567.132 106.88C567.132 105.92 567.172 103.2 567.252 98.72C567.332 94.24 567.372 90.72 567.372 88.16C567.372 74.8 567.012 65.16 566.292 59.24C568.612 58.84 570.692 58.64 572.532 58.64ZM635.22 66.56C631.54 66.56 627.34 68.36 622.62 71.96C622.7 75 622.74 81.6 622.74 91.76C622.82 101.92 623.1 109.92 623.58 115.76C621.42 116.08 619.42 116.24 617.58 116.24C612.38 116.24 609.78 114.64 609.78 111.44C609.78 110.88 609.82 108.92 609.9 105.56C610.06 102.2 610.18 97.08 610.26 90.2C610.34 83.32 610.38 75.36 610.38 66.32C610.38 47.44 610.02 34.48 609.3 27.44C611.54 27.04 613.62 26.84 615.54 26.84C621.22 26.84 624.06 29.04 624.06 33.44C624.06 34.16 623.94 35.88 623.7 38.6C623.54 41.24 623.34 44.8 623.1 49.28C622.86 53.68 622.74 58.36 622.74 63.32C628.02 59.64 633.38 57.8 638.82 57.8C644.42 57.8 648.66 59.32 651.54 62.36C654.5 65.32 655.98 69 655.98 73.4C655.98 77.96 654.46 82.08 651.42 85.76C648.46 89.44 644.34 91.72 639.06 92.6C642.02 97.72 644.9 101.68 647.7 104.48C650.02 106.72 651.98 107.84 653.58 107.84C655.18 107.84 656.74 107.6 658.26 107.12C659.14 109.12 659.58 110.64 659.58 111.68C659.58 113.52 658.58 114.92 656.58 115.88C654.66 116.76 652.26 117.2 649.38 117.2C646.1 117.2 642.98 115.52 640.02 112.16C635.78 107.28 631.66 100.32 627.66 91.28C626.3 90.72 625.62 89.64 625.62 88.04C625.62 87 625.9 85.72 626.46 84.2C628.14 84.68 629.94 84.92 631.86 84.92C635.38 84.92 638.14 83.88 640.14 81.8C642.22 79.72 643.26 77.32 643.26 74.6C643.26 72.36 642.54 70.48 641.1 68.96C639.74 67.36 637.78 66.56 635.22 66.56ZM700.639 75.08C699.039 69.88 694.599 67.28 687.319 67.28C685.239 67.28 683.439 67.88 681.919 69.08C680.399 70.2 679.639 71.76 679.639 73.76C679.639 76.16 680.679 78.04 682.759 79.4C684.919 80.76 687.519 81.76 690.559 82.4C693.599 83.04 696.639 83.8 699.679 84.68C702.719 85.56 705.279 87.2 707.359 89.6C709.519 92 710.599 95.2 710.599 99.2C710.599 105.04 708.279 109.52 703.639 112.64C699.079 115.68 693.679 117.2 687.439 117.2C681.919 117.2 677.039 116.28 672.799 114.44C668.559 112.6 666.439 110.32 666.439 107.6C666.439 104.16 668.919 101.4 673.879 99.32C676.279 104.92 681.479 107.72 689.479 107.72C695.559 107.72 698.599 105.68 698.599 101.6C698.599 99.2 697.519 97.4 695.359 96.2C693.279 94.92 690.719 94 687.679 93.44C684.639 92.8 681.599 92 678.559 91.04C675.519 90.08 672.919 88.32 670.759 85.76C668.679 83.2 667.639 79.76 667.639 75.44C667.639 69.68 669.919 65.32 674.479 62.36C679.119 59.32 684.559 57.8 690.799 57.8C693.199 57.8 695.679 58.08 698.239 58.64C700.879 59.12 703.399 60.2 705.799 61.88C708.279 63.48 709.519 65.52 709.519 68C709.519 69.6 708.719 71.04 707.119 72.32C705.519 73.52 703.359 74.44 700.639 75.08Z" fill="white"/>
</svg>
