<svg id="visual" viewBox="0 0 1600 900" width="1600" height="900" xmlns="http://www.w3.org/2000/svg" xmlns:xlink="http://www.w3.org/1999/xlink" version="1.1"><path d="M0 731L38.2 738.3C76.3 745.7 152.7 760.3 228.8 772C305 783.7 381 792.3 457.2 781.7C533.3 771 609.7 741 685.8 744C762 747 838 783 914.2 789.2C990.3 795.3 1066.7 771.7 1142.8 766.2C1219 760.7 1295 773.3 1371.2 783.8C1447.3 794.3 1523.7 802.7 1561.8 806.8L1600 811L1600 901L1561.8 901C1523.7 901 1447.3 901 1371.2 901C1295 901 1219 901 1142.8 901C1066.7 901 990.3 901 914.2 901C838 901 762 901 685.8 901C609.7 901 533.3 901 457.2 901C381 901 305 901 228.8 901C152.7 901 76.3 901 38.2 901L0 901Z" fill="#e0f2fe" stroke-linecap="round" stroke-linejoin="miter"></path></svg>