<svg id="visual" viewBox="0 0 960 540" width="960" height="540" xmlns="http://www.w3.org/2000/svg" xmlns:xlink="http://www.w3.org/1999/xlink" version="1.1"><rect width="960" height="540" fill="#001829"></rect><g><g transform="translate(225 475)"><path d="M0 -53.1L37.6 -37.6L53.1 0L37.6 37.6L0 53.1L-37.6 37.6L-53.1 0L-37.6 -37.6Z" fill="#E0E7FF"></path></g><g transform="translate(801 64)"><path d="M0 -29L20.5 -20.5L29 0L20.5 20.5L0 29L-20.5 20.5L-29 0L-20.5 -20.5Z" fill="#E0E7FF"></path></g><g transform="translate(409 157)"><path d="M0 -41L29 -29L41 0L29 29L0 41L-29 29L-41 0L-29 -29Z" fill="#E0E7FF"></path></g><g transform="translate(147 384)"><path d="M0 -31L21.9 -21.9L31 0L21.9 21.9L0 31L-21.9 21.9L-31 0L-21.9 -21.9Z" fill="#E0E7FF"></path></g><g transform="translate(186 114)"><path d="M0 -47L33.2 -33.2L47 0L33.2 33.2L0 47L-33.2 33.2L-47 0L-33.2 -33.2Z" fill="#E0E7FF"></path></g><g transform="translate(620 87)"><path d="M0 -51L36.1 -36.1L51 0L36.1 36.1L0 51L-36.1 36.1L-51 0L-36.1 -36.1Z" fill="#E0E7FF"></path></g><g transform="translate(693 354)"><path d="M0 -29L20.5 -20.5L29 0L20.5 20.5L0 29L-20.5 20.5L-29 0L-20.5 -20.5Z" fill="#E0E7FF"></path></g><g transform="translate(822 182)"><path d="M0 -42L29.7 -29.7L42 0L29.7 29.7L0 42L-29.7 29.7L-42 0L-29.7 -29.7Z" fill="#E0E7FF"></path></g><g transform="translate(528 453)"><path d="M0 -41L29 -29L41 0L29 29L0 41L-29 29L-41 0L-29 -29Z" fill="#E0E7FF"></path></g></g></svg>